<svg id="Layer_3" data-name="Layer 3" xmlns="http://www.w3.org/2000/svg" viewBox="0 0 460.8 344.85"><defs><style>.cls-1,.cls-3,.cls-4,.cls-5{fill:none;stroke:#231f20;}.cls-1,.cls-3,.cls-5{stroke-miterlimit:10;}.cls-1{stroke-width:1.22px;}.cls-2{fill:#231f20;}.cls-3,.cls-4,.cls-5{stroke-width:12px;}.cls-4{stroke-linejoin:round;}.cls-5{stroke-linecap:round;}</style></defs><path class="cls-1" d="M457,329.62" transform="translate(-16.6 -80.58)"/><path class="cls-2" d="M381.36,271.65a164.14,164.14,0,0,0-61.43-11.83c-53.09.37-77.82,28.08-105.14,12.72-16.34-9.2-19.81-26.05-43.84-32.88a65.7,65.7,0,0,0-23-2.2c-6,11.93-14.37,33.12-14.37,57.83,0,3.36.13,6.7.4,10,21.7,25.88,37.2,30.47,47.91,28.82,12-1.84,18.44-11.55,30.44-9.34,10.4,1.93,14.4,10.84,21.93,18.67,22.31,23.24,60.52,21.13,68.2,20.71,46.94-2.59,75-40.24,79.06-45.82a125,125,0,0,0,2.13-23A120.73,120.73,0,0,0,381.36,271.65Zm-200,37.13c-13.91-.84-23.72-23.91-23.16-39.95,15.33,10.11,27.27,21.88,42.61,32A23.16,23.16,0,0,1,181.33,308.78Zm91.17,22.89c-15.58,0-25.8-20.26-27.53-22.73,24.84-4.79,63.63-10,88.47-14.83C323,307.67,293.17,331.69,272.5,331.67Z" transform="translate(-16.6 -80.58)"/><path class="cls-1" d="M447.67,306.23" transform="translate(-16.6 -80.58)"/><path class="cls-3" d="M187.41,192.05a124.81,124.81,0,1,0,185.19,51.5" transform="translate(-16.6 -80.58)"/><path class="cls-2" d="M476.41,191l-106,55.92-21.68,11.44a1.76,1.76,0,0,1-1.64,0L195.27,186l-72.4-34.54a1.85,1.85,0,0,1-.07-3.29L250.48,80.79a1.84,1.84,0,0,1,1.65,0l224.22,107A1.83,1.83,0,0,1,476.41,191Z" transform="translate(-16.6 -80.58)"/><path class="cls-2" d="M182.65,187.06l132,61.9a2.49,2.49,0,0,1-.41,4.67c-14.5,3.82-58.46,2.53-91.34-12.08a116.59,116.59,0,0,1-47.13-38.66,2.5,2.5,0,0,1-.35-2.2q1.89-6.06,3.79-12.11A2.49,2.49,0,0,1,182.65,187.06Z" transform="translate(-16.6 -80.58)"/><rect class="cls-2" x="392.44" y="139.78" width="9.34" height="54.29"/><circle class="cls-2" cx="397.11" cy="201.37" r="9.74"/><path class="cls-2" d="M408.34,290.07l-11.28,58.25a10.05,10.05,0,0,0,.61,3.65c2.89,7.76,14.93,8.7,15.43,8.73,5.25.34,14-1,16.64-6.9a9.15,9.15,0,0,0,.81-3.86L419.18,290Z" transform="translate(-16.6 -80.58)"/><path class="cls-4" d="M151.91,359.41c-15.48.9-26.84,8.89-32.52,13.67a113.11,113.11,0,0,0-81.19-9.34L22.6,230.16a117,117,0,0,1,82.58,19.92,97.88,97.88,0,0,1,32-13.82,95.34,95.34,0,0,1,12.12-2v0a124.92,124.92,0,0,0,2.6,125.1Z" transform="translate(-16.6 -80.58)"/><line class="cls-3" x1="88.58" y1="169.51" x2="102.8" y2="292.51"/><path class="cls-5" d="M46.32,259.82a74.94,74.94,0,0,1,43,8.12" transform="translate(-16.6 -80.58)"/><path class="cls-5" d="M48.63,282.39a81,81,0,0,1,44.1,8.15" transform="translate(-16.6 -80.58)"/><path class="cls-5" d="M51.54,307.21a79.13,79.13,0,0,1,44.71,8.63" transform="translate(-16.6 -80.58)"/><path class="cls-5" d="M51.54,330.05a83.41,83.41,0,0,1,46.61,9.2" transform="translate(-16.6 -80.58)"/></svg>